<?xml version="1.0" encoding="UTF-8"?>
<svg id="Layer_1" data-name="Layer 1" xmlns="http://www.w3.org/2000/svg" xmlns:xlink="http://www.w3.org/1999/xlink" viewBox="0 0 1040.31 1040.31">
  <defs>
    <style>
      .cls-1 {
        fill: url(#linear-gradient);
      }

      .cls-1, .cls-2, .cls-3, .cls-4, .cls-5, .cls-6, .cls-7, .cls-8, .cls-9, .cls-10 {
        stroke-width: 0px;
      }

      .cls-2 {
        fill: url(#linear-gradient-10);
      }

      .cls-3 {
        fill: url(#linear-gradient-4);
      }

      .cls-4 {
        fill: url(#linear-gradient-2);
      }

      .cls-5 {
        fill: url(#linear-gradient-3);
      }

      .cls-6 {
        fill: url(#linear-gradient-8);
      }

      .cls-7 {
        fill: url(#linear-gradient-9);
      }

      .cls-8 {
        fill: url(#linear-gradient-7);
      }

      .cls-9 {
        fill: url(#linear-gradient-5);
      }

      .cls-10 {
        fill: url(#linear-gradient-6);
      }
    </style>
    <linearGradient id="linear-gradient" x1="176.57" y1="407.95" x2="174.75" y2="620.26" gradientUnits="userSpaceOnUse">
      <stop offset="0" stop-color="#ebebec"/>
      <stop offset="1" stop-color="#76889f"/>
    </linearGradient>
    <linearGradient id="linear-gradient-2" x1="204.24" y1="408.19" x2="202.41" y2="620.5" xlink:href="#linear-gradient"/>
    <linearGradient id="linear-gradient-3" x1="352.79" y1="409.46" x2="350.96" y2="621.78" xlink:href="#linear-gradient"/>
    <linearGradient id="linear-gradient-4" x1="674.08" y1="412.22" x2="672.26" y2="624.53" xlink:href="#linear-gradient"/>
    <linearGradient id="linear-gradient-5" x1="465.49" y1="410.43" x2="463.67" y2="622.74" xlink:href="#linear-gradient"/>
    <linearGradient id="linear-gradient-6" x1="774.55" y1="413.08" x2="772.73" y2="625.4" xlink:href="#linear-gradient"/>
    <linearGradient id="linear-gradient-7" x1="567.49" y1="411.3" x2="565.67" y2="623.62" xlink:href="#linear-gradient"/>
    <linearGradient id="linear-gradient-8" x1="858.83" y1="413.81" x2="857.01" y2="626.12" xlink:href="#linear-gradient"/>
    <linearGradient id="linear-gradient-9" x1="914.42" y1="414.28" x2="912.6" y2="626.6" xlink:href="#linear-gradient"/>
    <linearGradient id="linear-gradient-10" x1="913.37" y1="414.27" x2="911.54" y2="626.59" xlink:href="#linear-gradient"/>
  </defs>
  <g>
    <path class="cls-1" d="M184.64,604.1c10.06-10.07,19.96-19.98,30.08-30.11-26.36-26.07-52.91-52.34-79.36-78.51v35.36h-12.69v-66.07c36.53,36.3,73.36,72.9,110.45,109.75-16.24,15.86-32.36,31.6-48.22,47.09-9.53-9.36-19.66-19.28-29.74-29.24-5.76-5.69-11.46-11.43-17.14-17.19-1.16-1.18-2.16-1.66-4.01-1.28-8,1.65-15.7-4.76-16.65-13.6-.82-7.69,5.89-15.07,13.78-15.16,9.73-.1,16.49,8.21,14.48,17.72-.17.81,0,2.06.52,2.59,12.41,12.55,24.89,25.03,37.35,37.52.36.36.74.71,1.15,1.1ZM131.5,555.01c-2.37.07-4.35,2.15-4.35,4.56,0,2.47,2.18,4.64,4.61,4.57,2.3-.06,4.39-2.24,4.37-4.57-.01-2.46-2.23-4.64-4.64-4.57Z"/>
    <path class="cls-4" d="M146.91,460.95c13.82-13.84,27.99-28.03,42.22-42.28,5.06,5.04,10.27,10.16,15.41,15.34,11.65,11.74,23.29,23.47,34.85,35.3,1.4,1.43,2.68,1.71,4.49,1.37,7.43-1.42,14.73,3.74,16.32,11.47,1.49,7.27-3.46,15.28-10.5,17-10.56,2.58-19.89-6.78-17.68-17.66.16-.81-.1-2.06-.65-2.61-13.88-14.01-27.83-27.95-41.77-41.9-.12-.12-.28-.18-.27-.17-8.25,8.18-16.48,16.34-24.89,24.68,26.15,25.84,52.33,51.72,78.29,77.38v-24.89h12.71v55.37c-35.94-35.9-72.32-72.23-108.52-108.39ZM246.12,489.41c2.65-.03,4.43-1.9,4.36-4.61-.06-2.51-1.94-4.39-4.39-4.4-2.58,0-4.47,1.93-4.46,4.58,0,2.75,1.73,4.46,4.49,4.43Z"/>
  </g>
  <g>
    <path class="cls-5" d="M321.94,578.52h-18.56v-116.87c4.95,0,9.9-.2,14.82.13,1.31.09,2.82,1.55,3.72,2.77,19.49,26.51,38.91,53.08,58.35,79.63.18.25.51.38,1.2.87v-83.07h18.84v116.68c-5.24,0-10.5.16-15.74-.13-1.11-.06-2.35-1.57-3.17-2.67-18.83-25.36-37.62-50.76-56.41-76.15-.75-1.01-1.54-1.99-3.04-3.93v82.75Z"/>
    <path class="cls-3" d="M710.85,461.67v17.41c-2.23,0-4.31-.02-6.39,0-14.81.18-29.63.15-44.43.63-7.4.24-11.46,4.14-12.41,10.53-1.04,6.96,1.79,12.32,9.1,14.53,9.3,2.81,18.9,4.62,28.36,6.92,3.85.94,7.74,1.8,11.47,3.12,16.54,5.88,22.34,18.49,21.23,33.22-1.25,16.53-11.68,27.91-27.85,29.46-14.03,1.35-28.23.88-42.36,1.15-5.12.1-10.23.02-15.47.02v-17.74c9.54,0,18.83.01,28.12,0,7.83-.01,15.65.01,23.48-.11,8.16-.13,12.66-3.73,14.17-11.11,1.48-7.24-1.66-15.23-8.22-17.52-7.28-2.55-15.07-3.6-22.58-5.5-7.19-1.82-14.62-3.17-21.4-6.02-12.64-5.31-18.58-16.84-16.98-30.68,1.67-14.44,10.24-24.48,23.59-27.17,4.03-.81,8.22-1.04,12.34-1.08,15.28-.12,30.57-.05,46.25-.05Z"/>
    <path class="cls-9" d="M506.01,542.74h-63.78c1.56,12.86,9,19.52,22.32,19.85,10.32.26,20.66.05,30.99.05,1.63,0,3.26,0,5.15,0v15.31c-.16.14-.41.54-.65.54-14.8-.19-29.67.45-44.36-.88-16.78-1.52-26.91-12.1-30.78-28.21-3.86-16.06-3.13-31.73,7.16-45.64,6.64-8.98,15.97-13.32,26.92-13.99,7.78-.47,15.56-.5,23.04,2.62,16.3,6.8,22.52,20.12,23.93,36.54.37,4.29.06,8.65.06,13.8ZM487.11,528.54c-.22-16.24-9.25-24.07-25.91-22.81-11.87.9-20.32,11.07-18.78,22.81h44.69Z"/>
    <path class="cls-10" d="M811.95,577.41c-15.48.78-30.39,1.84-45.31,2.13-5,.1-10.24-1.17-15.02-2.82-12.2-4.19-17.8-13.56-17-27.19.73-12.42,7.37-21.15,19.54-23.63,7.57-1.55,15.49-1.48,23.27-1.86,5.29-.26,10.6-.05,15.82-.05,2.03-10.28-3.32-17.14-13.3-17.25-12.31-.13-24.62-.03-37.18-.03v-15.2c14.95,0,29.83-1.21,44.42.34,14.8,1.56,23.99,12.16,24.58,26.92.77,19.09.19,38.23.19,58.66ZM793.79,537.2c-10.86.52-21.15.69-31.38,1.63-6.44.59-10.27,5.63-10.37,11.98-.11,6.85,3.36,12.3,9.96,12.76,10.48.73,21.04.19,31.79.19v-26.56Z"/>
    <path class="cls-8" d="M565.71,489.61c25.26-1.04,43.91,17.4,44.26,45.52.33,26.22-17.23,43.84-42.37,44.79-25.76.97-44.27-17.58-44.71-44.91-.45-28.03,18.64-46.36,42.81-45.39ZM541.58,534.38c.52,4.04.78,7.69,1.49,11.24,2.16,10.7,9.81,17.28,21.14,18.43,10.83,1.1,19.76-3.99,23.89-13.91,3.78-9.08,3.77-18.4.98-27.73-3.28-11-11.38-16.94-22.85-16.9-11.6.04-19.68,5.91-22.74,17-1.09,3.94-1.34,8.12-1.92,11.87Z"/>
    <path class="cls-6" d="M886.81,490.69v15.69h-24.52v71.9h-18.25v-71.48h-14.64v-15.97h13.92c.23-3.45.5-6.52.64-9.6.61-12.64,8.97-21.16,21.48-21.57,6.63-.22,13.28-.04,20.25-.04v15.09c-4.83,0-9.61-.12-14.39.03-7.1.22-11.86,7.52-9.03,14.09.44,1.01,2.64,1.73,4.05,1.77,6.65.18,13.3.08,20.49.08Z"/>
    <path class="cls-7" d="M904.41,490.9h17.96v87.52h-17.96v-87.52Z"/>
    <path class="cls-2" d="M912.96,458.58c6.08,0,10.16,4.18,10.06,10.35-.1,6.01-4.43,10.19-10.48,10.1-5.74-.09-9.68-4.23-9.75-10.26-.07-6.21,3.9-10.19,10.17-10.2Z"/>
  </g>
</svg>