<?xml version="1.0" encoding="UTF-8"?>
<svg id="Layer_1" data-name="Layer 1" xmlns="http://www.w3.org/2000/svg" xmlns:xlink="http://www.w3.org/1999/xlink" viewBox="0 0 1040.31 1040.31">
  <defs>
    <style>
      .cls-1 {
        fill: url(#linear-gradient);
      }

      .cls-1, .cls-2, .cls-3, .cls-4, .cls-5, .cls-6, .cls-7, .cls-8, .cls-9, .cls-10, .cls-11 {
        stroke-width: 0px;
      }

      .cls-2 {
        fill: url(#linear-gradient-10);
      }

      .cls-3 {
        fill: #031027;
      }

      .cls-4 {
        fill: url(#linear-gradient-4);
      }

      .cls-5 {
        fill: url(#linear-gradient-2);
      }

      .cls-6 {
        fill: url(#linear-gradient-3);
      }

      .cls-7 {
        fill: url(#linear-gradient-8);
      }

      .cls-8 {
        fill: url(#linear-gradient-9);
      }

      .cls-9 {
        fill: url(#linear-gradient-7);
      }

      .cls-10 {
        fill: url(#linear-gradient-5);
      }

      .cls-11 {
        fill: url(#linear-gradient-6);
      }
    </style>
    <linearGradient id="linear-gradient" x1="497.38" y1="253.17" x2="490.3" y2="653.05" gradientUnits="userSpaceOnUse">
      <stop offset="0" stop-color="#ebebec"/>
      <stop offset="1" stop-color="#76889f"/>
    </linearGradient>
    <linearGradient id="linear-gradient-2" x1="549.25" y1="254.09" x2="542.17" y2="653.97" xlink:href="#linear-gradient"/>
    <linearGradient id="linear-gradient-3" x1="257.61" y1="674.67" x2="260.4" y2="800.29" xlink:href="#linear-gradient"/>
    <linearGradient id="linear-gradient-4" x1="578.79" y1="667.53" x2="581.59" y2="793.15" xlink:href="#linear-gradient"/>
    <linearGradient id="linear-gradient-5" x1="369.87" y1="672.17" x2="372.66" y2="797.8" xlink:href="#linear-gradient"/>
    <linearGradient id="linear-gradient-6" x1="678.42" y1="665.32" x2="681.21" y2="790.94" xlink:href="#linear-gradient"/>
    <linearGradient id="linear-gradient-7" x1="471.77" y1="669.91" x2="474.57" y2="795.53" xlink:href="#linear-gradient"/>
    <linearGradient id="linear-gradient-8" x1="764.1" y1="663.41" x2="766.89" y2="789.04" xlink:href="#linear-gradient"/>
    <linearGradient id="linear-gradient-9" x1="818.57" y1="662.2" x2="821.36" y2="787.83" xlink:href="#linear-gradient"/>
    <linearGradient id="linear-gradient-10" x1="819.54" y1="662.18" x2="822.34" y2="787.8" xlink:href="#linear-gradient"/>
  </defs>
  <rect class="cls-3" width="1040.31" height="1040.31"/>
  <g>
    <path class="cls-1" d="M510.57,611.45c19.46-19.48,38.63-38.66,58.21-58.26-51-50.45-102.38-101.28-153.57-151.92v68.43h-24.56v-127.85c70.68,70.24,141.96,141.07,213.73,212.39-31.42,30.68-62.63,61.16-93.32,91.13-18.44-18.12-38.04-37.31-57.54-56.58-11.14-11.01-22.17-22.12-33.17-33.27-2.25-2.28-4.19-3.22-7.77-2.48-15.48,3.2-30.39-9.22-32.21-26.31-1.59-14.88,11.4-29.17,26.67-29.33,18.83-.2,31.9,15.89,28.02,34.3-.33,1.57-.02,3.99,1,5.02,24.01,24.29,48.16,48.44,72.28,72.61.7.71,1.44,1.38,2.22,2.12ZM407.73,516.45c-4.58.14-8.41,4.15-8.42,8.83,0,4.78,4.23,8.97,8.93,8.85,4.45-.12,8.49-4.33,8.47-8.84-.03-4.76-4.32-8.98-8.98-8.84Z"/>
    <path class="cls-5" d="M437.56,334.44c26.75-26.79,54.16-54.23,81.7-81.81,9.8,9.75,19.86,19.66,29.81,29.68,22.54,22.71,45.08,45.42,67.43,68.31,2.7,2.77,5.18,3.31,8.68,2.65,14.39-2.75,28.5,7.25,31.58,22.2,2.89,14.06-6.69,29.56-20.33,32.89-20.43,4.99-38.48-13.13-34.2-34.17.32-1.57-.19-3.98-1.26-5.06-26.87-27.1-53.86-54.08-80.83-81.07-.23-.23-.55-.35-.51-.33-15.97,15.84-31.88,31.61-48.16,47.75,50.59,50.01,101.26,100.09,151.5,149.74v-48.17h24.6v107.15c-69.56-69.47-139.94-139.77-210-209.75ZM629.55,389.51c5.13-.05,8.57-3.69,8.44-8.91-.12-4.86-3.75-8.5-8.49-8.52-4.99-.02-8.65,3.73-8.64,8.85,0,5.33,3.36,8.63,8.69,8.58Z"/>
    <path class="cls-6" d="M228.9,786.24h-18.56v-116.87c4.95,0,9.9-.2,14.82.13,1.31.09,2.82,1.55,3.72,2.77,19.49,26.51,38.91,53.08,58.35,79.63.18.25.51.38,1.2.87v-83.07h18.84v116.68c-5.24,0-10.5.16-15.74-.13-1.11-.06-2.35-1.57-3.17-2.67-18.83-25.36-37.62-50.76-56.41-76.15-.75-1.01-1.54-1.99-3.04-3.93v82.75Z"/>
    <path class="cls-4" d="M617.81,669.39v17.41c-2.23,0-4.31-.02-6.39,0-14.81.18-29.63.15-44.43.63-7.4.24-11.46,4.14-12.41,10.53-1.04,6.96,1.79,12.32,9.1,14.53,9.3,2.81,18.9,4.62,28.36,6.92,3.85.94,7.74,1.8,11.47,3.12,16.54,5.88,22.34,18.49,21.23,33.22-1.25,16.53-11.68,27.91-27.85,29.46-14.03,1.35-28.23.88-42.36,1.15-5.12.1-10.23.02-15.47.02v-17.74c9.54,0,18.83.01,28.12,0,7.83-.01,15.65.01,23.48-.11,8.16-.13,12.66-3.73,14.17-11.11,1.48-7.24-1.66-15.23-8.22-17.52-7.28-2.55-15.07-3.6-22.58-5.5-7.19-1.82-14.62-3.17-21.4-6.02-12.64-5.31-18.58-16.84-16.98-30.68,1.67-14.44,10.24-24.48,23.59-27.17,4.03-.81,8.22-1.04,12.34-1.08,15.28-.12,30.57-.05,46.25-.05Z"/>
    <path class="cls-10" d="M412.97,750.46h-63.78c1.56,12.86,9,19.52,22.32,19.85,10.32.26,20.66.05,30.99.05,1.63,0,3.26,0,5.15,0v15.31c-.16.14-.41.54-.65.54-14.8-.19-29.67.45-44.36-.88-16.78-1.52-26.91-12.1-30.78-28.21-3.86-16.06-3.13-31.73,7.16-45.64,6.64-8.98,15.97-13.32,26.92-13.99,7.78-.47,15.56-.5,23.04,2.62,16.3,6.8,22.52,20.12,23.93,36.54.37,4.29.06,8.65.06,13.8ZM394.07,736.27c-.22-16.24-9.25-24.07-25.91-22.81-11.87.9-20.32,11.07-18.78,22.81h44.69Z"/>
    <path class="cls-11" d="M718.91,785.13c-15.48.78-30.39,1.84-45.31,2.13-5,.1-10.24-1.17-15.02-2.82-12.2-4.19-17.8-13.56-17-27.19.73-12.42,7.37-21.15,19.54-23.63,7.57-1.55,15.49-1.48,23.27-1.86,5.29-.26,10.6-.05,15.82-.05,2.03-10.28-3.32-17.14-13.3-17.25-12.31-.13-24.62-.03-37.18-.03v-15.2c14.95,0,29.83-1.21,44.42.34,14.8,1.56,23.99,12.16,24.58,26.92.77,19.09.19,38.23.19,58.66ZM700.75,744.92c-10.86.52-21.15.69-31.38,1.63-6.44.59-10.27,5.63-10.37,11.98-.11,6.85,3.36,12.3,9.96,12.76,10.48.73,21.04.19,31.79.19v-26.56Z"/>
    <path class="cls-9" d="M472.67,697.34c25.26-1.04,43.91,17.4,44.26,45.52.33,26.22-17.23,43.84-42.37,44.79-25.76.97-44.27-17.58-44.71-44.91-.45-28.03,18.64-46.36,42.81-45.39ZM448.54,742.1c.52,4.04.78,7.69,1.49,11.24,2.16,10.7,9.81,17.28,21.14,18.43,10.83,1.1,19.76-3.99,23.89-13.91,3.78-9.08,3.77-18.4.98-27.73-3.28-11-11.38-16.94-22.85-16.9-11.6.04-19.68,5.91-22.74,17-1.09,3.94-1.34,8.12-1.92,11.87Z"/>
    <path class="cls-7" d="M793.77,698.41v15.69h-24.52v71.9h-18.25v-71.48h-14.64v-15.97h13.92c.23-3.45.5-6.52.64-9.6.61-12.64,8.97-21.16,21.48-21.57,6.63-.22,13.28-.04,20.25-.04v15.09c-4.83,0-9.61-.12-14.39.03-7.1.22-11.86,7.52-9.03,14.09.44,1.01,2.64,1.73,4.05,1.77,6.65.18,13.3.08,20.49.08Z"/>
    <path class="cls-8" d="M811.37,698.62h17.96v87.52h-17.96v-87.52Z"/>
    <path class="cls-2" d="M819.92,666.31c6.08,0,10.16,4.18,10.06,10.35-.1,6.01-4.43,10.19-10.48,10.1-5.74-.09-9.68-4.23-9.75-10.26-.07-6.21,3.9-10.19,10.17-10.2Z"/>
  </g>
</svg>